# xmcd CD database file
#
# Track frame offsets:
#	150
#	22320
#	45750
#
# Disc length: 903 seconds
#
# Revision: 0
# Processed by: cddbd v1.5.1PL0 Copyright (c) Steve Scherf et al.
# Submitted via: CDex 1.51
#
DISCID=1b038503
DTITLE=児島未散 - ひとりじゃもういられない
DYEAR=1995
DGENRE=JPop
TTITLE0=ひとりじゃもういられない
TTITLE1=もっと遠くへ
TTITLE2=ひとりじゃもういられない（カラオケ）
EXTD=YEAR: 1995
EXTT0=
EXTT1=
EXTT2=
PLAYORDER=
